<svg width="24" height="24" viewBox="0 0 24 24" fill="none" xmlns="http://www.w3.org/2000/svg">
    <path
        d="M16.8 12.3C16.8 11.9022 16.958 11.5206 17.2393 11.2393C17.5206 10.958 17.9022 10.8 18.3 10.8C18.6978 10.8 19.0794 10.958 19.3607 11.2393C19.642 11.5206 19.8 11.9022 19.8 12.3C19.8 12.6978 19.642 13.0793 19.3607 13.3606C19.0794 13.642 18.6978 13.8 18.3 13.8C17.9022 13.8 17.5206 13.642 17.2393 13.3606C16.958 13.0793 16.8 12.6978 16.8 12.3ZM10.8 12.3C10.8 11.9022 10.958 11.5206 11.2393 11.2393C11.5206 10.958 11.9022 10.8 12.3 10.8C12.6978 10.8 13.0794 10.958 13.3607 11.2393C13.642 11.5206 13.8 11.9022 13.8 12.3C13.8 12.6978 13.642 13.0793 13.3607 13.3606C13.0794 13.642 12.6978 13.8 12.3 13.8C11.9022 13.8 11.5206 13.642 11.2393 13.3606C10.958 13.0793 10.8 12.6978 10.8 12.3ZM4.8 12.3C4.8 11.9022 4.95804 11.5206 5.23934 11.2393C5.52065 10.958 5.90218 10.8 6.3 10.8C6.69783 10.8 7.07936 10.958 7.36066 11.2393C7.64197 11.5206 7.8 11.9022 7.8 12.3C7.8 12.6978 7.64197 13.0793 7.36066 13.3606C7.07936 13.642 6.69783 13.8 6.3 13.8C5.90218 13.8 5.52065 13.642 5.23934 13.3606C4.95804 13.0793 4.8 12.6978 4.8 12.3Z"
        fill="currentColor" />
</svg>