<svg width="23" height="22" viewBox="0 0 23 22" fill="none" xmlns="http://www.w3.org/2000/svg">
    <path
        d="M1.6053 12.2135C1.25228 9.9162 1.07577 8.76763 1.51008 7.74938C1.94438 6.73112 2.90794 6.03443 4.83505 4.64106L6.2749 3.6C8.6722 1.86667 9.87083 1 11.2539 1C12.6369 1 13.8356 1.86667 16.2329 3.6L17.6727 4.64106C19.5999 6.03443 20.5634 6.73112 20.9977 7.74938C21.432 8.76763 21.2555 9.9162 20.9025 12.2135L20.6015 14.1724C20.101 17.4289 19.8508 19.0572 18.6829 20.0286C17.515 21 15.8075 21 12.3927 21H10.1151C6.70025 21 4.99282 21 3.82491 20.0286C2.657 19.0572 2.40678 17.4289 1.90634 14.1724L1.6053 12.2135Z"
        stroke="currentColor" stroke-width="2" stroke-linejoin="round" />
    <path
        d="M8.51299 21L8.26236 17.4911C8.12761 15.6046 9.62169 14 11.513 14C13.4043 14 14.8984 15.6046 14.7636 17.4911L14.513 21"
        stroke="currentColor" stroke-width="2" />
</svg>