<svg width="25" height="24" viewBox="0 0 25 24" fill="none" xmlns="http://www.w3.org/2000/svg">
    <g clip-path="url(#clip0_27869_2334)">
        <path
            d="M12.1271 22.632L6.98424 23.0777L7.42995 17.9348L18.1271 7.30628C18.2867 7.143 18.4774 7.01326 18.6879 6.92469C18.8984 6.83612 19.1244 6.79049 19.3528 6.79049C19.5812 6.79049 19.8072 6.83612 20.0177 6.92469C20.2282 7.01326 20.4189 7.143 20.5785 7.30628L22.7557 9.50056C22.9163 9.65993 23.0439 9.84953 23.1309 10.0584C23.2179 10.2673 23.2627 10.4914 23.2627 10.7177C23.2627 10.944 23.2179 11.1681 23.1309 11.377C23.0439 11.5859 22.9163 11.7755 22.7557 11.9348L12.1271 22.632ZM1.69738 6.80913C1.09567 6.70456 1.09567 5.84056 1.69738 5.73599C2.76242 5.5497 3.74801 5.05091 4.52884 4.30305C5.30968 3.55518 5.85049 2.59201 6.08252 1.53599L6.11852 1.36971C6.24881 0.776563 7.09567 0.77142 7.23281 1.36628L7.27567 1.55828C7.5147 2.61029 8.05956 3.5681 8.84168 4.31117C9.6238 5.05425 10.6082 5.54938 11.6711 5.73428C12.2762 5.83713 12.2762 6.70628 11.6711 6.81256C10.6081 6.99703 9.6235 7.49177 8.84107 8.23454C8.05865 8.97731 7.5134 9.93492 7.27395 10.9868L7.22938 11.1806C7.09395 11.7737 6.24709 11.7703 6.11681 11.1754L6.08252 11.0091C5.85026 9.95265 5.30894 8.98914 4.52744 8.24123C3.74595 7.49332 2.75961 6.9948 1.69395 6.80913H1.69738Z"
            stroke="currentColor" stroke-width="1.5" stroke-linecap="round" stroke-linejoin="round" />
    </g>
    <defs>
        <clipPath id="clip0_27869_2334">
            <rect width="24" height="24" fill="currentColor" transform="translate(0.253906)" />
        </clipPath>
    </defs>
</svg>