<svg width="18" height="18" viewBox="0 0 18 18" fill="none" xmlns="http://www.w3.org/2000/svg">
    <path
        d="M15.7499 4.4999C15.7499 5.74254 14.7426 6.7499 13.4999 6.7499C12.2572 6.7499 11.2499 5.74254 11.2499 4.4999C11.2499 3.25726 12.2572 2.2499 13.4999 2.2499C14.7426 2.2499 15.7499 3.25726 15.7499 4.4999Z"
        stroke="currentColor" stroke-width="1.5" />
    <path
        d="M15.7499 13.4999C15.7499 14.7426 14.7426 15.7499 13.4999 15.7499C12.2572 15.7499 11.2499 14.7426 11.2499 13.4999C11.2499 12.2572 12.2572 11.2499 13.4999 11.2499C14.7426 11.2499 15.7499 12.2572 15.7499 13.4999Z"
        stroke="currentColor" stroke-width="1.5" />
    <path d="M11.2499 5.9999L2.2499 14.2499" stroke="currentColor" stroke-width="1.5" stroke-linecap="round"
        stroke-linejoin="round" />
    <path d="M11.2501 11.9999L8.2499 8.99991" stroke="currentColor" stroke-width="1.5" stroke-linecap="round"
        stroke-linejoin="round" />
    <path d="M2.2499 3.7499L6.3749 7.49982" stroke="currentColor" stroke-width="1.5" stroke-linecap="round"
        stroke-linejoin="round" />
</svg>