<svg width="24" height="24" viewBox="0 0 24 24" fill="none" xmlns="http://www.w3.org/2000/svg">
    <mask id="path-1-inside-1_28524_35" fill="currentColor">
        <path
            d="M8.25 7.5C8.05109 7.5 7.86032 7.57902 7.71967 7.71967C7.57902 7.86032 7.5 8.05109 7.5 8.25C7.5 8.44891 7.57902 8.63968 7.71967 8.78033C7.86032 8.92098 8.05109 9 8.25 9H15.75C15.9489 9 16.1397 8.92098 16.2803 8.78033C16.421 8.63968 16.5 8.44891 16.5 8.25C16.5 8.05109 16.421 7.86032 16.2803 7.71967C16.1397 7.57902 15.9489 7.5 15.75 7.5H8.25ZM8.25 11.25C8.05109 11.25 7.86032 11.329 7.71967 11.4697C7.57902 11.6103 7.5 11.8011 7.5 12C7.5 12.1989 7.57902 12.3897 7.71967 12.5303C7.86032 12.671 8.05109 12.75 8.25 12.75H12.75C12.9489 12.75 13.1397 12.671 13.2803 12.5303C13.421 12.3897 13.5 12.1989 13.5 12C13.5 11.8011 13.421 11.6103 13.2803 11.4697C13.1397 11.329 12.9489 11.25 12.75 11.25H8.25ZM8.25 15C8.05109 15 7.86032 15.079 7.71967 15.2197C7.57902 15.3603 7.5 15.5511 7.5 15.75C7.5 15.9489 7.57902 16.1397 7.71967 16.2803C7.86032 16.421 8.05109 16.5 8.25 16.5H15.75C15.9489 16.5 16.1397 16.421 16.2803 16.2803C16.421 16.1397 16.5 15.9489 16.5 15.75C16.5 15.5511 16.421 15.3603 16.2803 15.2197C16.1397 15.079 15.9489 15 15.75 15H8.25ZM6.75 3C5.75544 3 4.80161 3.39509 4.09835 4.09835C3.39509 4.80161 3 5.75544 3 6.75V17.25C3 18.2446 3.39509 19.1984 4.09835 19.9016C4.80161 20.6049 5.75544 21 6.75 21H17.25C18.2446 21 19.1984 20.6049 19.9016 19.9016C20.6049 19.1984 21 18.2446 21 17.25V6.75C21 5.75544 20.6049 4.80161 19.9016 4.09835C19.1984 3.39509 18.2446 3 17.25 3H6.75ZM4.5 6.75C4.5 6.15326 4.73705 5.58097 5.15901 5.15901C5.58097 4.73705 6.15326 4.5 6.75 4.5H17.25C17.8467 4.5 18.419 4.73705 18.841 5.15901C19.2629 5.58097 19.5 6.15326 19.5 6.75V17.25C19.5 17.8467 19.2629 18.419 18.841 18.841C18.419 19.2629 17.8467 19.5 17.25 19.5H6.75C6.15326 19.5 5.58097 19.2629 5.15901 18.841C4.73705 18.419 4.5 17.8467 4.5 17.25V6.75Z" />
    </mask>
    <path
        d="M8.25 7.5C8.05109 7.5 7.86032 7.57902 7.71967 7.71967C7.57902 7.86032 7.5 8.05109 7.5 8.25C7.5 8.44891 7.57902 8.63968 7.71967 8.78033C7.86032 8.92098 8.05109 9 8.25 9H15.75C15.9489 9 16.1397 8.92098 16.2803 8.78033C16.421 8.63968 16.5 8.44891 16.5 8.25C16.5 8.05109 16.421 7.86032 16.2803 7.71967C16.1397 7.57902 15.9489 7.5 15.75 7.5H8.25ZM8.25 11.25C8.05109 11.25 7.86032 11.329 7.71967 11.4697C7.57902 11.6103 7.5 11.8011 7.5 12C7.5 12.1989 7.57902 12.3897 7.71967 12.5303C7.86032 12.671 8.05109 12.75 8.25 12.75H12.75C12.9489 12.75 13.1397 12.671 13.2803 12.5303C13.421 12.3897 13.5 12.1989 13.5 12C13.5 11.8011 13.421 11.6103 13.2803 11.4697C13.1397 11.329 12.9489 11.25 12.75 11.25H8.25ZM8.25 15C8.05109 15 7.86032 15.079 7.71967 15.2197C7.57902 15.3603 7.5 15.5511 7.5 15.75C7.5 15.9489 7.57902 16.1397 7.71967 16.2803C7.86032 16.421 8.05109 16.5 8.25 16.5H15.75C15.9489 16.5 16.1397 16.421 16.2803 16.2803C16.421 16.1397 16.5 15.9489 16.5 15.75C16.5 15.5511 16.421 15.3603 16.2803 15.2197C16.1397 15.079 15.9489 15 15.75 15H8.25ZM6.75 3C5.75544 3 4.80161 3.39509 4.09835 4.09835C3.39509 4.80161 3 5.75544 3 6.75V17.25C3 18.2446 3.39509 19.1984 4.09835 19.9016C4.80161 20.6049 5.75544 21 6.75 21H17.25C18.2446 21 19.1984 20.6049 19.9016 19.9016C20.6049 19.1984 21 18.2446 21 17.25V6.75C21 5.75544 20.6049 4.80161 19.9016 4.09835C19.1984 3.39509 18.2446 3 17.25 3H6.75ZM4.5 6.75C4.5 6.15326 4.73705 5.58097 5.15901 5.15901C5.58097 4.73705 6.15326 4.5 6.75 4.5H17.25C17.8467 4.5 18.419 4.73705 18.841 5.15901C19.2629 5.58097 19.5 6.15326 19.5 6.75V17.25C19.5 17.8467 19.2629 18.419 18.841 18.841C18.419 19.2629 17.8467 19.5 17.25 19.5H6.75C6.15326 19.5 5.58097 19.2629 5.15901 18.841C4.73705 18.419 4.5 17.8467 4.5 17.25V6.75Z"
        fill="black" />
    <path
        d="M3 6.75H1.5H3ZM17.25 21V19.5V21ZM21 6.75H19.5H21ZM6.75 4.5V3V4.5ZM19.5 6.75H21H19.5ZM19.5 17.25H21H19.5ZM17.25 19.5V21V19.5ZM6.75 19.5V21V19.5ZM8.25 7.5V6C7.65326 6 7.08097 6.23706 6.65901 6.65901L7.71967 7.71967L8.78033 8.78033C8.63968 8.92098 8.44892 9 8.25 9V7.5ZM7.71967 7.71967L6.65901 6.65901C6.23706 7.08097 6 7.65326 6 8.25H7.5H9C9 8.44892 8.92098 8.63968 8.78033 8.78033L7.71967 7.71967ZM7.5 8.25H6C6 8.84674 6.23706 9.41903 6.65901 9.84099L7.71967 8.78033L8.78033 7.71967C8.92098 7.86032 9 8.05108 9 8.25H7.5ZM7.71967 8.78033L6.65901 9.84099C7.08097 10.2629 7.65326 10.5 8.25 10.5V9V7.5C8.44892 7.5 8.63968 7.57902 8.78033 7.71967L7.71967 8.78033ZM8.25 9V10.5H15.75V9V7.5H8.25V9ZM15.75 9V10.5C16.3467 10.5 16.919 10.2629 17.341 9.84099L16.2803 8.78033L15.2197 7.71967C15.3603 7.57902 15.5511 7.5 15.75 7.5V9ZM16.2803 8.78033L17.341 9.84099C17.7629 9.41903 18 8.84674 18 8.25H16.5H15C15 8.05109 15.079 7.86032 15.2197 7.71967L16.2803 8.78033ZM16.5 8.25H18C18 7.65326 17.7629 7.08097 17.341 6.65901L16.2803 7.71967L15.2197 8.78033C15.079 8.63968 15 8.44891 15 8.25H16.5ZM16.2803 7.71967L17.341 6.65901C16.919 6.23705 16.3467 6 15.75 6V7.5V9C15.5511 9 15.3603 8.92098 15.2197 8.78033L16.2803 7.71967ZM15.75 7.5V6H8.25V7.5V9H15.75V7.5ZM8.25 11.25V9.75C7.65326 9.75 7.08097 9.98706 6.65901 10.409L7.71967 11.4697L8.78033 12.5303C8.63968 12.671 8.44892 12.75 8.25 12.75V11.25ZM7.71967 11.4697L6.65901 10.409C6.23706 10.831 6 11.4033 6 12H7.5H9C9 12.1989 8.92098 12.3897 8.78033 12.5303L7.71967 11.4697ZM7.5 12H6C6 12.5967 6.23705 13.169 6.65901 13.591L7.71967 12.5303L8.78033 11.4697C8.92098 11.6103 9 11.8011 9 12H7.5ZM7.71967 12.5303L6.65901 13.591C7.08097 14.0129 7.65326 14.25 8.25 14.25V12.75V11.25C8.44891 11.25 8.63968 11.329 8.78033 11.4697L7.71967 12.5303ZM8.25 12.75V14.25H12.75V12.75V11.25H8.25V12.75ZM12.75 12.75V14.25C13.3467 14.25 13.919 14.013 14.341 13.591L13.2803 12.5303L12.2197 11.4697C12.3603 11.329 12.5511 11.25 12.75 11.25V12.75ZM13.2803 12.5303L14.341 13.591C14.763 13.169 15 12.5967 15 12H13.5H12C12 11.8011 12.079 11.6103 12.2197 11.4697L13.2803 12.5303ZM13.5 12H15C15 11.4033 14.7629 10.831 14.341 10.409L13.2803 11.4697L12.2197 12.5303C12.079 12.3897 12 12.1989 12 12H13.5ZM13.2803 11.4697L14.341 10.409C13.919 9.98705 13.3467 9.75 12.75 9.75V11.25V12.75C12.5511 12.75 12.3603 12.671 12.2197 12.5303L13.2803 11.4697ZM12.75 11.25V9.75H8.25V11.25V12.75H12.75V11.25ZM8.25 15V13.5C7.65326 13.5 7.08097 13.7371 6.65901 14.159L7.71967 15.2197L8.78033 16.2803C8.63968 16.421 8.44891 16.5 8.25 16.5V15ZM7.71967 15.2197L6.65901 14.159C6.23705 14.581 6 15.1533 6 15.75H7.5H9C9 15.9489 8.92098 16.1397 8.78033 16.2803L7.71967 15.2197ZM7.5 15.75H6C6 16.3467 6.23705 16.919 6.65901 17.341L7.71967 16.2803L8.78033 15.2197C8.92098 15.3603 9 15.5511 9 15.75H7.5ZM7.71967 16.2803L6.65901 17.341C7.08097 17.7629 7.65326 18 8.25 18V16.5V15C8.44891 15 8.63968 15.079 8.78033 15.2197L7.71967 16.2803ZM8.25 16.5V18H15.75V16.5V15H8.25V16.5ZM15.75 16.5V18C16.3467 18 16.919 17.763 17.341 17.341L16.2803 16.2803L15.2197 15.2197C15.3603 15.079 15.5511 15 15.75 15V16.5ZM16.2803 16.2803L17.341 17.341C17.763 16.919 18 16.3467 18 15.75H16.5H15C15 15.5511 15.079 15.3603 15.2197 15.2197L16.2803 16.2803ZM16.5 15.75H18C18 15.1533 17.763 14.581 17.341 14.159L16.2803 15.2197L15.2197 16.2803C15.079 16.1397 15 15.9489 15 15.75H16.5ZM16.2803 15.2197L17.341 14.159C16.919 13.737 16.3467 13.5 15.75 13.5V15V16.5C15.5511 16.5 15.3603 16.421 15.2197 16.2803L16.2803 15.2197ZM15.75 15V13.5H8.25V15V16.5H15.75V15ZM6.75 3V1.5C5.35761 1.5 4.02226 2.05312 3.03769 3.03769L4.09835 4.09835L5.15901 5.15901C5.58097 4.73705 6.15326 4.5 6.75 4.5V3ZM4.09835 4.09835L3.03769 3.03769C2.05312 4.02226 1.5 5.35761 1.5 6.75H3H4.5C4.5 6.15326 4.73705 5.58097 5.15901 5.15901L4.09835 4.09835ZM3 6.75H1.5V17.25H3H4.5V6.75H3ZM3 17.25H1.5C1.5 18.6424 2.05312 19.9777 3.03769 20.9623L4.09835 19.9016L5.15901 18.841C4.73705 18.419 4.5 17.8467 4.5 17.25H3ZM4.09835 19.9016L3.03769 20.9623C4.02225 21.9469 5.35761 22.5 6.75 22.5V21V19.5C6.15326 19.5 5.58097 19.2629 5.15901 18.841L4.09835 19.9016ZM6.75 21V22.5H17.25V21V19.5H6.75V21ZM17.25 21V22.5C18.6424 22.5 19.9777 21.9469 20.9623 20.9623L19.9016 19.9016L18.841 18.841C18.419 19.2629 17.8467 19.5 17.25 19.5V21ZM19.9016 19.9016L20.9623 20.9623C21.9469 19.9777 22.5 18.6424 22.5 17.25H21H19.5C19.5 17.8467 19.2629 18.419 18.841 18.841L19.9016 19.9016ZM21 17.25H22.5V6.75H21H19.5V17.25H21ZM21 6.75H22.5C22.5 5.35761 21.9469 4.02225 20.9623 3.03769L19.9016 4.09835L18.841 5.15901C19.2629 5.58097 19.5 6.15326 19.5 6.75H21ZM19.9016 4.09835L20.9623 3.03769C19.9777 2.05312 18.6424 1.5 17.25 1.5V3V4.5C17.8467 4.5 18.419 4.73705 18.841 5.15901L19.9016 4.09835ZM17.25 3V1.5H6.75V3V4.5H17.25V3ZM4.5 6.75H6C6 6.55109 6.07902 6.36032 6.21967 6.21967L5.15901 5.15901L4.09835 4.09835C3.39509 4.80161 3 5.75544 3 6.75H4.5ZM5.15901 5.15901L6.21967 6.21967C6.36032 6.07902 6.55109 6 6.75 6V4.5V3C5.75544 3 4.80161 3.39509 4.09835 4.09835L5.15901 5.15901ZM6.75 4.5V6H17.25V4.5V3H6.75V4.5ZM17.25 4.5V6C17.4489 6 17.6397 6.07902 17.7803 6.21967L18.841 5.15901L19.9016 4.09835C19.1984 3.39509 18.2446 3 17.25 3V4.5ZM18.841 5.15901L17.7803 6.21967C17.921 6.36032 18 6.55109 18 6.75H19.5H21C21 5.75544 20.6049 4.80161 19.9016 4.09835L18.841 5.15901ZM19.5 6.75H18V17.25H19.5H21V6.75H19.5ZM19.5 17.25H18C18 17.4489 17.921 17.6397 17.7803 17.7803L18.841 18.841L19.9016 19.9016C20.6049 19.1984 21 18.2446 21 17.25H19.5ZM18.841 18.841L17.7803 17.7803C17.6397 17.921 17.4489 18 17.25 18V19.5V21C18.2446 21 19.1984 20.6049 19.9016 19.9016L18.841 18.841ZM17.25 19.5V18H6.75V19.5V21H17.25V19.5ZM6.75 19.5V18C6.55109 18 6.36032 17.921 6.21967 17.7803L5.15901 18.841L4.09835 19.9016C4.80161 20.6049 5.75544 21 6.75 21V19.5ZM5.15901 18.841L6.21967 17.7803C6.07902 17.6397 6 17.4489 6 17.25H4.5H3C3 18.2446 3.39509 19.1984 4.09835 19.9016L5.15901 18.841ZM4.5 17.25H6V6.75H4.5H3V17.25H4.5Z"
        fill="currentColor" mask="url(#path-1-inside-1_28524_35)" />
</svg>