<svg width="25" height="24" viewBox="0 0 25 24" fill="none" xmlns="http://www.w3.org/2000/svg">
    <path
        d="M5.5 14.5H12.5C13.6935 14.5 14.8377 14.9744 15.6816 15.8184C16.5256 16.6623 17 17.8065 17 19V20.5H16V19C16 18.0717 15.631 17.1818 14.9746 16.5254C14.3182 15.869 13.4283 15.5 12.5 15.5H5.5C4.57174 15.5 3.68177 15.869 3.02539 16.5254C2.36901 17.1818 2 18.0717 2 19V20.5H1V19C1 17.8065 1.47445 16.6623 2.31836 15.8184C3.16227 14.9744 4.30653 14.5 5.5 14.5ZM21.1357 6.76367H21.1367C21.7026 7.74919 22.0003 8.86648 22 10.0029C21.9996 11.1391 21.701 12.2552 21.1348 13.2402L20.8848 13.6738L20.0176 13.1758L20.2676 12.7422C20.7468 11.9088 20.9995 10.9643 21 10.0029C21.0004 9.04135 20.7483 8.09566 20.2695 7.26172L20.0205 6.82812L20.8877 6.33008L21.1357 6.76367ZM9 2.5C10.1935 2.5 11.3377 2.97445 12.1816 3.81836C13.0256 4.66227 13.5 5.80653 13.5 7C13.5 8.19347 13.0256 9.33773 12.1816 10.1816C11.3377 11.0256 10.1935 11.5 9 11.5C7.80653 11.5 6.66227 11.0256 5.81836 10.1816C4.97445 9.33773 4.5 8.19347 4.5 7C4.5 5.80653 4.97445 4.66227 5.81836 3.81836C6.66227 2.97445 7.80653 2.5 9 2.5ZM18.1016 8.50684C18.3628 8.96157 18.5 9.47752 18.5 10.002C18.4999 10.526 18.3625 11.0407 18.1016 11.4951L17.8506 11.9287L16.9844 11.4297L17.2334 10.9971C17.4076 10.694 17.4999 10.3506 17.5 10.001C17.5 9.69485 17.4293 9.3929 17.2949 9.11914L17.2334 9.00391L16.9844 8.57031L17.8525 8.07227L18.1016 8.50684ZM9 3.5C8.54037 3.5 8.0848 3.59071 7.66016 3.7666C7.23569 3.94249 6.85028 4.2005 6.52539 4.52539C6.2005 4.85028 5.94249 5.23569 5.7666 5.66016C5.59071 6.0848 5.5 6.54037 5.5 7C5.5 7.45963 5.59071 7.9152 5.7666 8.33984C5.94249 8.76431 6.2005 9.14972 6.52539 9.47461C6.85028 9.7995 7.23569 10.0575 7.66016 10.2334C8.0848 10.4093 8.54037 10.5 9 10.5C9.92826 10.5 10.8182 10.131 11.4746 9.47461C12.131 8.81823 12.5 7.92826 12.5 7C12.5 6.07174 12.131 5.18177 11.4746 4.52539C10.8182 3.86901 9.92826 3.5 9 3.5Z"
        fill="currentColor" stroke="currentColor" />
</svg>