<svg width="24" height="24" viewBox="0 0 24 24" fill="none" xmlns="http://www.w3.org/2000/svg">
    <path
        d="M12 5.32H6.09499C5.62222 5.32 5.15408 5.41325 4.7174 5.59442C4.28071 5.77558 3.88404 6.0411 3.55011 6.37578C3.21618 6.71045 2.95154 7.10771 2.77135 7.5448C2.59115 7.98189 2.49894 8.45023 2.49999 8.923V15.085C2.49999 16.0385 2.87875 16.9529 3.55294 17.627C3.88677 17.9609 4.28308 18.2257 4.71925 18.4063C5.15541 18.587 5.62289 18.68 6.09499 18.68H12C12.9534 18.68 13.8678 18.3012 14.542 17.627C15.2162 16.9529 15.595 16.0385 15.595 15.085V8.924C15.5964 8.45102 15.5045 7.98241 15.3245 7.54503C15.1445 7.10765 14.8799 6.7101 14.5459 6.37519C14.2119 6.04028 13.8151 5.77458 13.3782 5.59334C12.9413 5.41209 12.473 5.31887 12 5.319M21.5 9.438V14.573C21.5 14.823 21.429 15.069 21.295 15.281C21.1593 15.4936 20.9671 15.6643 20.74 15.774C20.5144 15.8869 20.2602 15.9301 20.01 15.898C19.7633 15.8684 19.5293 15.7723 19.333 15.62L16.108 13.032C15.9531 12.9045 15.8278 12.7448 15.741 12.564C15.6541 12.3832 15.6077 12.1856 15.605 11.985C15.605 11.785 15.65 11.588 15.738 11.41C15.83 11.242 15.956 11.095 16.108 10.978L19.333 8.411C19.5293 8.25805 19.7638 8.16189 20.011 8.133C20.261 8.101 20.515 8.144 20.74 8.256C20.9637 8.36335 21.1532 8.53069 21.2874 8.73938C21.4216 8.94808 21.4952 9.18993 21.5 9.438Z"
        stroke="currentColor" stroke-width="1.5" stroke-linecap="round" stroke-linejoin="round" />
</svg>